<svg width="10" height="10" viewBox="-4.5 -4.5 27 27" fill="none" xmlns="http://www.w3.org/2000/svg">
<path d="M17.2571 10C14.8736 8.79017 13.537 6.66257 13.1667 5.75C14.092 6.03569 16.1951 6.77213 17.2045 7.43229C17.4092 7.95646 17.3249 9.3625 17.2571 10Z" fill="#F47A08"/>
<path d="M8.48464 10.5349C4.61503 8.26559 3.55851 4.39942 3.51395 2.75C-1.92814 7.02239 0.854465 16.9715 8.27006 17.3987C13.874 17.7216 16.5921 13.6108 17.1667 11.4979C15.885 12.1224 12.3543 12.8041 8.48464 10.5349Z" fill="#FAC848"/>
<path d="M9.06128 4.41636L13.1577 5.80647C14.3516 6.09427 16.3278 6.99983 17.1667 7.41663C16.7298 3.85054 13.5317 1.73743 11.8435 1.10874C10.1553 0.480043 6.07288 0.385739 5.40179 1.73743C4.86493 2.81878 7.61776 3.97395 9.06128 4.41636Z" fill="#FAC848"/>
</svg>
