<svg width="110" height="105" viewBox="0 0 110 105" fill="none" xmlns="http://www.w3.org/2000/svg">
<path d="M35.5088 17.669L39.193 27.0169L44.9825 20.0485L43.0526 2L35.5088 17.669Z" fill="#2C44D6"/>
<path d="M35.5088 17.669V59.6497L41.4737 72.2269L39.193 27.0169L35.5088 17.669Z" fill="#2C44D6"/>
<path d="M41.4737 72.2269L35.5088 59.6497L31 66.5L37.5 78.2218L41.4737 72.2269Z" fill="#2C44D6"/>
<path d="M37.5 78.2218L31 66.5L31.5 84L32 86.5L36.386 83.4444L37.5 78.2218Z" fill="#2C44D6"/>
<path d="M29.7193 93L50.2456 104L46.386 97.0414L32 86.5L29.7193 89.282V93Z" fill="#2C44D6"/>
<path d="M9.89474 78.2218L29.7193 89.282L32 86.5L5.1579 71.9295L7.52632 76.839L9.89474 78.2218Z" fill="#2C44D6"/>
<path d="M74.4912 17.669L70.807 27.0169L65.0175 20.0485L66.9474 2L74.4912 17.669Z" fill="#2C44D6"/>
<path d="M74.4912 17.669V59.6497L68.5263 72.2269L70.807 27.0169L74.4912 17.669Z" fill="#2C44D6"/>
<path d="M68.5263 72.2269L74.4912 59.6497L79 66.5L72.5 78.2218L68.5263 72.2269Z" fill="#2C44D6"/>
<path d="M72.5 78.2218L79 66.5L78.5 84L78 86.5L73.614 83.4444L72.5 78.2218Z" fill="#2C44D6"/>
<path d="M80.2807 93L59.7544 104L63.614 97.0414L78 86.5L80.2807 89.282V93Z" fill="#2C44D6"/>
<path d="M100.105 78.2218L80.2807 89.282L78 86.5L104.842 71.9295L102.474 76.839L100.105 78.2218Z" fill="#2C44D6"/>
<path fill-rule="evenodd" clip-rule="evenodd" d="M1 67.5L31.5 84L32 86.5L5.1579 71.9295L7.52632 76.839L4.5 75L1 67.5ZM50.2456 104H55V85.6539H50.2456L48.8021 83.4444L50.2456 69L44.9825 20.0485L39.193 27.0169L41.4737 72.2269L37.5 78.2218L36.386 83.4444L32 86.5L46.386 97.0414L50.2456 104Z" fill="#4891FF"/>
<path d="M35.5088 59.6497V17.669M35.5088 59.6497L41.4737 72.2269M35.5088 59.6497L31 66.5M35.5088 17.669L39.193 27.0169M35.5088 17.669L43.0526 2L44.9825 20.0485M39.193 27.0169L41.4737 72.2269M39.193 27.0169L44.9825 20.0485M41.4737 72.2269L37.5 78.2218M41.4737 72.2269L48.8021 83.4444M44.9825 20.0485L50.2456 69L48.8021 83.4444M31 66.5L37.5 78.2218M31 66.5L31.5 84M37.5 78.2218L36.386 83.4444M31.5 84L32 86.5M31.5 84L1 67.5L4.5 75L7.52632 76.839M36.386 83.4444L32 86.5M36.386 83.4444L43.0526 88.5433L46.386 91.0927M32 86.5L46.386 97.0414M32 86.5L5.1579 71.9295L7.52632 76.839M32 86.5L29.7193 89.282M29.7193 89.282V93L50.2456 104M29.7193 89.282L9.89474 78.2218L7.52632 76.839M50.2456 104L46.386 97.0414M50.2456 104H55V85.6539H50.2456M50.2456 85.6539L46.386 91.0927M50.2456 85.6539L48.8021 83.4444M46.386 91.0927V97.0414" stroke="#161C24" stroke-width="0.7"/>
<path fill-rule="evenodd" clip-rule="evenodd" d="M109 67.5L78.5 84L78 86.5L104.842 71.9295L102.474 76.839L105.5 75L109 67.5ZM59.7544 104H55V85.6539H59.7544L61.1979 83.4444L59.7544 69L65.0175 20.0485L70.807 27.0169L68.5263 72.2269L72.5 78.2218L73.614 83.4444L78 86.5L63.614 97.0414L59.7544 104Z" fill="#4891FF"/>
<path d="M74.4912 59.6497V17.669M74.4912 59.6497L68.5263 72.2269M74.4912 59.6497L79 66.5M74.4912 17.669L70.807 27.0169M74.4912 17.669L66.9474 2L65.0175 20.0485M70.807 27.0169L68.5263 72.2269M70.807 27.0169L65.0175 20.0485M68.5263 72.2269L72.5 78.2218M68.5263 72.2269L61.1979 83.4444M65.0175 20.0485L59.7544 69L61.1979 83.4444M79 66.5L72.5 78.2218M79 66.5L78.5 84M72.5 78.2218L73.614 83.4444M78.5 84L78 86.5M78.5 84L109 67.5L105.5 75L102.474 76.839M73.614 83.4444L78 86.5M73.614 83.4444L66.9474 88.5433L63.614 91.0927M78 86.5L63.614 97.0414M78 86.5L104.842 71.9295L102.474 76.839M78 86.5L80.2807 89.282M80.2807 89.282V93L59.7544 104M80.2807 89.282L100.105 78.2218L102.474 76.839M59.7544 104L63.614 97.0414M59.7544 104H55V85.6539H59.7544M59.7544 85.6539L63.614 91.0927M59.7544 85.6539L61.1979 83.4444M63.614 91.0927V97.0414" stroke="#161C24" stroke-width="0.7"/>
</svg>
